<?xml version="1.0" encoding="utf-8"?>
<!-- Generator: Adobe Illustrator 16.0.4, SVG Export Plug-In . SVG Version: 6.00 Build 0)  -->
<!DOCTYPE svg PUBLIC "-//W3C//DTD SVG 1.1//EN" "http://www.w3.org/Graphics/SVG/1.1/DTD/svg11.dtd">
<svg version="1.1" id="Layer_1" xmlns="http://www.w3.org/2000/svg" xmlns:xlink="http://www.w3.org/1999/xlink" x="0px" y="0px"
	 width="54px" height="18px" viewBox="0 0 54 18" enable-background="new 0 0 54 18" xml:space="preserve">
<path d="M15.69,7.998h-0.834L14.521,7h1.168c0.277,0,0.499-0.222,0.499-0.5c0-0.273-0.222-0.498-0.499-0.498h-1.5l-0.684-2.051
	C13.333,3.427,12.739,3,12.189,3H6.19C5.639,3,5.046,3.427,4.873,3.951L4.189,6.002H2.69c-0.278,0-0.501,0.225-0.501,0.498
	C2.189,6.778,2.412,7,2.69,7h1.165L3.522,7.998H2.69c-0.278,0-0.501,0.226-0.501,0.503v3c0,0.275,0.223,0.5,0.501,0.5h0.499v1.998
	c0,0.555,0.447,1.001,1,1.001h1c0.552,0,1.001-0.446,1.001-1.001v-1.998h5.999v1.998c0,0.555,0.447,1.001,1.001,1.001h0.999
	c0.554,0,0.999-0.446,0.999-1.001v-1.998h0.501c0.275,0,0.499-0.225,0.499-0.5v-3C16.189,8.224,15.965,7.998,15.69,7.998z
	 M5.188,10.999c-0.552,0-1-0.446-1-0.999c0-0.555,0.447-0.999,1-0.999C5.74,9.001,6.19,9.445,6.19,10
	C6.19,10.553,5.74,10.999,5.188,10.999z M11.188,10.999H7.189V10h3.999V10.999z M4.575,7.998l1.247-3.732
	C5.859,4.151,6.068,3.999,6.19,3.999h1.998v0.5c0,0.279,0.225,0.5,0.502,0.5h1c0.277,0,0.5-0.221,0.5-0.5v-0.5h1.999
	c0.121,0,0.331,0.152,0.367,0.267l1.246,3.732H4.575z M13.19,10.999c-0.554,0-1.001-0.446-1.001-0.999
	c0-0.555,0.447-0.999,1.001-0.999c0.552,0,0.999,0.444,0.999,0.999C14.189,10.553,13.743,10.999,13.19,10.999z"/>
<g>
	<path d="M32.065,7.383c-0.33,0-0.656,0.054-0.971,0.16l-1.143-2.261h0.931V4.45h-2.286l0.539,1.066h-4.283l-0.118-0.233h0.815V4.45
		h-2.17l0.673,1.331l-1.035,1.8c-0.345-0.131-0.709-0.197-1.085-0.197c-1.7,0-3.083,1.383-3.083,3.083
		c0,1.699,1.383,3.084,3.083,3.084c1.533,0,2.848-1.162,3.054-2.668h2.049c0.149,0,0.288-0.08,0.36-0.207l2.325-4.005l0.626,1.24
		c-0.856,0.575-1.364,1.521-1.364,2.556c0,1.699,1.383,3.084,3.083,3.084c1.701,0,3.085-1.385,3.085-3.084
		C35.15,8.766,33.767,7.383,32.065,7.383z M28.942,6.349L26.98,9.731l-1.707-3.382H28.942z M22.561,10.049l0.772-1.342
		c0.423,0.337,0.71,0.813,0.81,1.342H22.561z M24.502,6.671l1.706,3.377h-1.221c-0.112-0.831-0.556-1.573-1.235-2.07L24.502,6.671z
		 M21.933,8.217c0.224,0,0.446,0.033,0.662,0.101L21.48,10.26c-0.074,0.129-0.074,0.287,0.001,0.416
		c0.074,0.127,0.212,0.207,0.36,0.207h2.302c-0.197,1.057-1.12,1.834-2.21,1.834c-1.241,0-2.25-1.01-2.25-2.25
		C19.683,9.226,20.692,8.217,21.933,8.217z M32.065,12.717c-1.24,0-2.249-1.01-2.249-2.25c0-0.717,0.337-1.38,0.91-1.805
		l1.119,2.213L32.59,10.5l-1.113-2.203c0.192-0.054,0.391-0.08,0.589-0.08c1.241,0,2.251,1.009,2.251,2.25
		C34.316,11.707,33.307,12.717,32.065,12.717z"/>
</g>
<g>
	<g>
		<path fill-rule="evenodd" clip-rule="evenodd" d="M48.484,16c0.002-0.004,0.004-0.008,0.008-0.009
			c0.415-0.1,0.628-0.538,0.398-1.003c-0.58-1.176-1.142-2.359-1.712-3.538c-0.033-0.069-0.091-0.137-0.15-0.183
			c-0.499-0.379-1-0.754-1.505-1.124c-0.078-0.058-0.105-0.469-0.105-0.562c0.002-1.082,0-2.162,0.004-3.243
			c0-0.088-0.025-0.152-0.09-0.212c-0.525-0.498-1.154-0.76-1.861-0.885c-0.373-0.065-0.633,0.027-0.881,0.315
			c-0.342,0.394-0.732,0.746-1.094,1.125c-0.104,0.105-0.188,0.234-0.271,0.359c-0.139,0.201-0.213,0.416-0.208,0.673
			c0.013,0.639,0.003,1.276,0.003,1.918c0,0.193,0.053,0.371,0.176,0.524c0.314,0.393,0.83,0.365,1.078-0.072
			c0.074-0.13,0.121-0.298,0.123-0.449c0.016-0.521,0.006-1.046,0.01-1.568c0-0.051,0.012-0.117,0.045-0.148
			c0.33-0.338,0.666-0.669,1-1.002c0.006-0.006,0.014-0.008,0.039-0.021c0,0.054,0,0.099,0,0.141c0,0.85,0.008,1.699,0,2.549
			c-0.004,0.248,0.07,0.808,0.25,0.957c0.287,0.241,0.594,0.465,0.898,0.688c0.402,0.289,0.814,0.567,1.217,0.858
			c0.056,0.039,0.101,0.105,0.132,0.169c0.497,1.033,0.998,2.064,1.486,3.104c0.143,0.298,0.315,0.545,0.651,0.64
			C48.243,16,48.362,16,48.484,16z"/>
	</g>
	<g>
		<path fill-rule="evenodd" clip-rule="evenodd" d="M42.051,15.833c0.381-0.096,0.578-0.384,0.756-0.708
			c0.648-1.183,1.371-2.474,2.029-3.65c0.027-0.049,0.051-0.098,0.082-0.152c-0.383-0.29-0.684-0.515-1.1-0.826
			c-0.182,0.312-0.414,0.726-0.588,1.026c-0.594,1.033-1.188,2.064-1.781,3.096c-0.132,0.23-0.203,0.474-0.135,0.739
			c0.059,0.229,0.205,0.39,0.427,0.476C41.844,15.833,41.946,15.833,42.051,15.833z"/>
	</g>
	<g>
		<path fill-rule="evenodd" clip-rule="evenodd" d="M45.969,3.232c0-0.684-0.547-1.231-1.23-1.232
			c-0.686-0.002-1.248,0.555-1.248,1.223c0.006,0.715,0.561,1.25,1.287,1.249C45.422,4.469,45.969,3.901,45.969,3.232z"/>
	</g>
	<g>
		<path fill-rule="evenodd" clip-rule="evenodd" d="M45.295,6.1c0,0.293,0,0.55,0,0.806c0,0.328-0.006,0.66,0.002,0.99
			c0.004,0.07,0.037,0.159,0.086,0.211c0.352,0.362,0.712,0.72,1.073,1.074c0.247,0.247,0.463,0.284,0.726,0.139
			c0.245-0.131,0.362-0.415,0.298-0.718c-0.059-0.267-0.171-0.504-0.373-0.701c-0.577-0.564-1.143-1.138-1.714-1.707
			C45.373,6.174,45.35,6.153,45.295,6.1z"/>
	</g>
</g>
</svg>
