<?xml version="1.0" encoding="utf-8"?>
<!-- Generator: Adobe Illustrator 19.0.0, SVG Export Plug-In . SVG Version: 6.00 Build 0)  -->
<svg version="1.1" id="Layer_1" xmlns="http://www.w3.org/2000/svg" xmlns:xlink="http://www.w3.org/1999/xlink" x="0px" y="0px"
	 viewBox="0 0 300 50" style="enable-background:new 0 0 300 50;" xml:space="preserve">
<style type="text/css">
	.st0{fill:#383A3A;}
</style>
<path class="st0" d="M68.6,22.1h-2.4l-1-2.9h3.3c0.8,0,1.4-0.6,1.4-1.4c0-0.8-0.6-1.4-1.4-1.4h-4.3l-2-5.9c-0.5-1.5-2.2-2.7-3.8-2.7
	H41.4c-1.6,0-3.3,1.2-3.8,2.7l-2,5.9h-4.3c-0.8,0-1.4,0.6-1.4,1.4c0,0.8,0.6,1.4,1.4,1.4h3.3l-1,2.9h-2.4c-0.8,0-1.4,0.6-1.4,1.4
	v8.6c0,0.8,0.6,1.4,1.4,1.4h1.4v5.7c0,1.6,1.3,2.9,2.9,2.9h2.9c1.6,0,2.9-1.3,2.9-2.9v-5.7h17.1v5.7c0,1.6,1.3,2.9,2.9,2.9h2.9
	c1.6,0,2.9-1.3,2.9-2.9v-5.7h1.4c0.8,0,1.4-0.6,1.4-1.4v-8.6C70,22.8,69.4,22.1,68.6,22.1z M38.6,30.7c-1.6,0-2.9-1.3-2.9-2.9
	c0-1.6,1.3-2.9,2.9-2.9c1.6,0,2.9,1.3,2.9,2.9C41.4,29.4,40.1,30.7,38.6,30.7z M55.7,30.7H44.3v-2.9h11.4V30.7z M36.8,22.1l3.6-10.7
	c0.1-0.3,0.7-0.8,1.1-0.8h5.7v1.4c0,0.8,0.6,1.4,1.4,1.4h2.9c0.8,0,1.4-0.6,1.4-1.4v-1.4h5.7c0.3,0,0.9,0.4,1,0.8l3.6,10.7H36.8z
	 M61.4,30.7c-1.6,0-2.9-1.3-2.9-2.9c0-1.6,1.3-2.9,2.9-2.9c1.6,0,2.9,1.3,2.9,2.9C64.3,29.4,63,30.7,61.4,30.7z"/>
<g id="XMLID_1_">
	<path class="st0" d="M165.5,20c-1,0-2,0.2-3,0.5l-3.5-6.9h2.9V11h-7l1.7,3.3h-13.1l-0.4-0.7h2.5V11h-6.7l2.1,4.1l-3.2,5.5
		c-1.1-0.4-2.2-0.6-3.3-0.6c-5.2,0-9.5,4.2-9.5,9.5c0,5.2,4.2,9.5,9.5,9.5c4.7,0,8.7-3.6,9.4-8.2h6.3c0.5,0,0.9-0.2,1.1-0.6
		l7.1-12.3l1.9,3.8c-2.6,1.8-4.2,4.7-4.2,7.8c0,5.2,4.2,9.5,9.5,9.5c5.2,0,9.5-4.2,9.5-9.5C175,24.3,170.8,20,165.5,20z M156,16.9
		l-6,10.4l-5.2-10.4H156z M136.4,28.2l2.4-4.1c1.3,1,2.2,2.5,2.5,4.1H136.4z M142.3,17.9l5.2,10.4h-3.7c-0.3-2.5-1.7-4.8-3.8-6.3
		L142.3,17.9z M134.5,22.6c0.7,0,1.4,0.1,2,0.3l-3.4,6c-0.2,0.4-0.2,0.9,0,1.3c0.2,0.4,0.7,0.6,1.1,0.6h7.1
		c-0.6,3.2-3.4,5.6-6.8,5.6c-3.8,0-6.9-3.1-6.9-6.9C127.6,25.7,130.7,22.6,134.5,22.6z M165.5,36.4c-3.8,0-6.9-3.1-6.9-6.9
		c0-2.2,1-4.2,2.8-5.5l3.4,6.8l2.3-1.2l-3.4-6.8c0.6-0.2,1.2-0.2,1.8-0.2c3.8,0,6.9,3.1,6.9,6.9C172.4,33.3,169.3,36.4,165.5,36.4z"
		/>
</g>
<g id="XMLID_7_">
	<g id="XMLID_14_">
		<path id="XMLID_15_" class="st0" d="M260.9,47C260.9,47,260.9,46.9,260.9,47c1.3-0.3,2-1.7,1.3-3.2c-1.8-3.7-3.6-7.4-5.4-11.1
			c-0.1-0.2-0.3-0.4-0.5-0.6c-1.6-1.2-3.1-2.4-4.7-3.5c-0.2-0.2-0.3-1.5-0.3-1.8c0-3.4,0-6.8,0-10.2c0-0.3-0.1-0.5-0.3-0.7
			c-1.6-1.6-3.6-2.4-5.8-2.8c-1.2-0.2-2,0.1-2.8,1c-1.1,1.2-2.3,2.3-3.4,3.5c-0.3,0.3-0.6,0.7-0.9,1.1c-0.4,0.6-0.7,1.3-0.7,2.1
			c0,2,0,4,0,6c0,0.6,0.2,1.2,0.6,1.6c1,1.2,2.6,1.1,3.4-0.2c0.2-0.4,0.4-0.9,0.4-1.4c0.1-1.6,0-3.3,0-4.9c0-0.2,0-0.4,0.1-0.5
			c1-1.1,2.1-2.1,3.1-3.1c0,0,0,0,0.1-0.1c0,0.2,0,0.3,0,0.4c0,2.7,0,5.3,0,8c0,0.8,0.2,2.5,0.8,3c0.9,0.8,1.9,1.5,2.8,2.2
			c1.3,0.9,2.6,1.8,3.8,2.7c0.2,0.1,0.3,0.3,0.4,0.5c1.6,3.2,3.1,6.5,4.7,9.7c0.4,0.9,1,1.7,2,2C260.2,47,260.5,47,260.9,47z"/>
	</g>
	<g id="XMLID_16_">
		<path id="XMLID_17_" class="st0" d="M240.7,46.4c1.2-0.3,1.8-1.2,2.4-2.2c2-3.7,4.3-7.8,6.4-11.5c0.1-0.2,0.2-0.3,0.3-0.5
			c-1.2-0.9-2.1-1.6-3.5-2.6c-0.6,1-1.3,2.3-1.8,3.2c-1.9,3.2-3.7,6.5-5.6,9.7c-0.4,0.7-0.6,1.5-0.4,2.3c0.2,0.7,0.6,1.2,1.3,1.5
			C240.1,46.4,240.4,46.4,240.7,46.4z"/>
	</g>
	<g id="XMLID_18_">
		<path id="XMLID_19_" class="st0" d="M253,6.9c0-2.1-1.7-3.9-3.9-3.9c-2.2,0-3.9,1.7-3.9,3.8c0,2.2,1.8,3.9,4,3.9
			C251.3,10.8,253,9,253,6.9z"/>
	</g>
	<g id="XMLID_20_">
		<path id="XMLID_21_" class="st0" d="M250.9,15.9c0,0.9,0,1.7,0,2.5c0,1,0,2.1,0,3.1c0,0.2,0.1,0.5,0.3,0.7
			c1.1,1.1,2.2,2.3,3.4,3.4c0.8,0.8,1.5,0.9,2.3,0.4c0.8-0.4,1.1-1.3,0.9-2.3c-0.2-0.8-0.5-1.6-1.2-2.2c-1.8-1.8-3.6-3.6-5.4-5.4
			C251.2,16.1,251.1,16.1,250.9,15.9z"/>
	</g>
</g>
</svg>
