<?xml version="1.0" encoding="utf-8"?>
<!-- Generator: Adobe Illustrator 16.0.4, SVG Export Plug-In . SVG Version: 6.00 Build 0)  -->
<!DOCTYPE svg PUBLIC "-//W3C//DTD SVG 1.1//EN" "http://www.w3.org/Graphics/SVG/1.1/DTD/svg11.dtd">
<svg version="1.1" id="Layer_1" xmlns="http://www.w3.org/2000/svg" xmlns:xlink="http://www.w3.org/1999/xlink" x="0px" y="0px"
	 width="180px" height="180px" viewBox="0 0 180 180" enable-background="new 0 0 180 180" xml:space="preserve">
<g>
	<path d="M147.162,161.319c-1.307-1.035-2.705-1.985-4.061-2.972c-5.018-3.651-10.145-7.201-15.051-10.989
		c5.99-0.656,10.693-5.767,10.693-11.925v-90.75c0-6.6-5.4-12-12-12h-15.98l-4.812-6.899c-1.574-2.255-5.111-4.101-7.861-4.101
		H81.908c-2.75,0-6.287,1.846-7.861,4.101l-4.812,6.899H53.256c-6.6,0-12,5.4-12,12v90.75c0,6.158,4.703,11.269,10.695,11.925
		c-4.908,3.788-10.035,7.338-15.053,10.989c-1.355,0.986-2.754,1.937-4.061,2.972c-0.807,0.643-1.773,1.6-1.406,2.729
		c0.174,0.543,0.578,0.988,0.992,1.37c0.738,0.68,1.275,0.578,2.25,0.578c1.709,0,108.943,0,110.652,0
		c0.975,0,1.512,0.102,2.25-0.578c0.414-0.382,0.818-0.827,0.992-1.37C148.936,162.919,147.969,161.962,147.162,161.319z
		 M60.764,135.539c-4.881-0.116-8.529-4.017-8.463-8.987c0.076-4.668,4.033-8.427,8.822-8.354c4.793,0.076,8.678,4.023,8.596,8.76
		C69.623,131.809,65.629,135.631,60.764,135.539z M85.639,105.613c0,1.104-0.895,2-2,2H50.434c-1.105,0-2-0.896-2-2V65.071
		c0-1.104,0.895-2,2-2h33.205c1.105,0,2,0.896,2,2V105.613z M81.07,42.625c0.035-4.764,3.982-8.701,8.715-8.714
		c4.814-0.006,8.68,3.938,8.67,8.846c-0.01,4.716-3.865,8.557-8.604,8.551C84.971,51.308,81.023,47.407,81.07,42.625z
		 M93.885,105.613V65.071c0-1.104,0.896-2,2-2h33.195c1.105,0,2,0.896,2,2v40.542c0,1.104-0.895,2-2,2H95.885
		C94.781,107.613,93.885,106.718,93.885,105.613z M118.492,135.525c-4.775,0.009-8.6-3.783-8.611-8.541
		c-0.016-5.021,3.779-8.817,8.756-8.791c4.764,0,8.562,3.843,8.578,8.591C127.221,131.746,123.441,135.513,118.492,135.525z"/>
</g>
</svg>
