<?xml version="1.0" encoding="utf-8"?>
<!-- Generator: Adobe Illustrator 16.0.4, SVG Export Plug-In . SVG Version: 6.00 Build 0)  -->
<!DOCTYPE svg PUBLIC "-//W3C//DTD SVG 1.1//EN" "http://www.w3.org/Graphics/SVG/1.1/DTD/svg11.dtd">
<svg version="1.1" id="Layer_1" xmlns="http://www.w3.org/2000/svg" xmlns:xlink="http://www.w3.org/1999/xlink" x="0px" y="0px"
	 width="316px" height="42.167px" viewBox="0 0 316 42.167" enable-background="new 0 0 316 42.167" xml:space="preserve">
<g>
	<g>
		<path fill="#686868" d="M39.275,16.129h1.4l4.456,6.673l4.455-6.673h1.396v12.23h-1.38v-9.908l-4.456,6.552h-0.068l-4.457-6.533
			v9.888h-1.347V16.129z"/>
		<path fill="#686868" d="M60.722,16.041h1.292l5.575,12.318h-1.485l-1.433-3.23h-6.662l-1.446,3.23h-1.416L60.722,16.041z
			 M64.129,23.884L61.35,17.65l-2.797,6.234H64.129z"/>
		<path fill="#686868" d="M71.75,16.129h4.578c2.76,0,4.579,1.465,4.579,3.877v0.035c0,2.638-2.203,4.001-4.807,4.001H73.13v4.316
			h-1.38V16.129z M76.152,22.785c2.027,0,3.356-1.084,3.356-2.691v-0.035c0-1.746-1.312-2.654-3.287-2.654H73.13v5.38H76.152z"/>
		<path fill="#686868" d="M84.354,27.431l7.916-10.062h-7.652v-1.24h9.539v0.926l-7.933,10.064h7.933v1.24h-9.803V27.431z"/>
		<path fill="#686868" d="M98.771,16.129h8.843v1.258h-7.461v4.176h6.675v1.257h-6.675v4.279h7.547v1.26h-8.929V16.129z"/>
		<path fill="#686868" d="M112.23,16.129h1.291l7.707,9.802v-9.802h1.345v12.23h-1.099l-7.898-10.029v10.029h-1.346V16.129z"/>
	</g>
	<polygon fill="#E6EAD2" points="18.104,30.212 29.875,34.255 29.562,22.353 29.797,10.883 18.012,14.574 5.872,10.803 
		6.106,22.236 5.832,34.216 	"/>
	<g>
		<g>
			<path fill="#6EA0A4" d="M6.103,22.345c-0.087,0-0.162-0.07-0.164-0.16l-0.247-11.41c0-0.051,0.023-0.102,0.066-0.135
				c0.043-0.031,0.098-0.039,0.148-0.023l9.956,3.246c0.086,0.027,0.134,0.119,0.105,0.207c-0.028,0.086-0.122,0.131-0.206,0.104
				l-9.737-3.172l0.242,11.175c0.002,0.092-0.07,0.166-0.16,0.168H6.103z"/>
		</g>
		<g>
			<path fill="#6EA0A4" d="M7.73,21.81c-0.09,0-0.162-0.072-0.164-0.16L7.289,8.793C7.288,8.74,7.311,8.689,7.354,8.658
				c0.043-0.033,0.098-0.041,0.149-0.025l9.172,2.885c0.087,0.025,0.135,0.117,0.107,0.205c-0.026,0.086-0.116,0.137-0.205,0.107
				L7.621,9.014L7.894,21.64c0.003,0.092-0.068,0.166-0.16,0.17H7.73z"/>
		</g>
	</g>
	<g>
		<g>
			<path fill="#6EA0A4" d="M29.617,22.345h-0.003c-0.091-0.002-0.163-0.076-0.161-0.168l0.242-11.175l-9.736,3.172
				c-0.084,0.027-0.179-0.018-0.207-0.104c-0.028-0.088,0.019-0.18,0.105-0.207l9.957-3.246c0.05-0.016,0.105-0.008,0.148,0.023
				c0.041,0.033,0.068,0.084,0.065,0.135l-0.246,11.41C29.779,22.275,29.707,22.345,29.617,22.345z"/>
		</g>
		<g>
			<path fill="#6EA0A4" d="M27.99,21.81h-0.003c-0.091-0.004-0.162-0.078-0.159-0.17l0.271-12.626l-8.955,2.816
				c-0.088,0.027-0.177-0.021-0.205-0.107c-0.027-0.088,0.021-0.18,0.107-0.205l9.173-2.885c0.051-0.016,0.106-0.008,0.148,0.025
				c0.042,0.031,0.067,0.082,0.064,0.135L28.153,21.65C28.153,21.738,28.079,21.81,27.99,21.81z"/>
		</g>
	</g>
	<g>
		<g>
			<g>
				<path fill="#6EA0A4" d="M5.855,34.417c-0.033,0-0.069-0.016-0.098-0.035c-0.043-0.031-0.066-0.082-0.066-0.137l0.247-11.406
					c0.002-0.09,0.077-0.16,0.164-0.16h0.004c0.09,0.002,0.162,0.076,0.16,0.168L6.024,34.023l9.737-3.172
					c0.084-0.029,0.178,0.018,0.206,0.105c0.028,0.084-0.02,0.178-0.105,0.205l-9.956,3.244C5.89,34.414,5.872,34.417,5.855,34.417z
					"/>
			</g>
			<g>
				<path fill="#6EA0A4" d="M7.453,36.398c-0.034,0-0.07-0.012-0.1-0.031c-0.043-0.033-0.065-0.084-0.064-0.137l0.277-12.854
					c0.002-0.09,0.074-0.162,0.164-0.162h0.003c0.092,0.002,0.163,0.076,0.16,0.168L7.621,36.011l8.956-2.818
					c0.089-0.025,0.178,0.021,0.205,0.109c0.027,0.086-0.021,0.18-0.107,0.203L7.503,36.39C7.486,36.396,7.47,36.398,7.453,36.398z"
					/>
			</g>
		</g>
		<g>
			<g>
				<path fill="#6EA0A4" d="M29.864,34.417c-0.018,0-0.033-0.004-0.05-0.012l-9.957-3.244c-0.087-0.027-0.134-0.121-0.105-0.205
					c0.028-0.088,0.121-0.135,0.207-0.105l9.736,3.172l-0.242-11.176c-0.002-0.092,0.07-0.166,0.161-0.168h0.002
					c0.091,0,0.163,0.07,0.166,0.16l0.246,11.406c0.003,0.055-0.024,0.105-0.065,0.137C29.933,34.402,29.901,34.417,29.864,34.417z"
					/>
			</g>
			<g>
				<path fill="#6EA0A4" d="M28.269,36.398c-0.018,0-0.034-0.002-0.05-0.008l-9.173-2.885c-0.087-0.023-0.135-0.117-0.107-0.203
					c0.028-0.088,0.119-0.135,0.205-0.109l8.955,2.818l-0.271-12.629c-0.003-0.092,0.068-0.166,0.159-0.168h0.003
					c0.089,0,0.163,0.072,0.163,0.162l0.278,12.854c0.003,0.053-0.022,0.104-0.064,0.137C28.339,36.386,28.304,36.398,28.269,36.398
					z"/>
			</g>
		</g>
	</g>
	<g>
		<path fill-rule="evenodd" clip-rule="evenodd" fill="#D4645C" d="M14.199,25.964c-4.363-1.215-8.693-2.418-13.022-3.623
			c-0.005-0.037-0.013-0.076-0.019-0.119c4.336-1.228,8.688-2.408,13.041-3.634c1.21-4.355,2.415-8.695,3.619-13.031
			c0.043-0.002,0.086-0.002,0.129-0.002c1.204,4.336,2.41,8.672,3.622,13.039c4.348,1.205,8.687,2.41,13.027,3.617
			c0.001,0.043,0.005,0.084,0.008,0.125c-4.332,1.205-8.665,2.412-13.036,3.629c-1.206,4.336-2.413,8.678-3.619,13.02
			c-0.041,0.004-0.082,0.01-0.126,0.016C16.621,34.667,15.415,30.337,14.199,25.964z"/>
	</g>
	<path fill-rule="evenodd" clip-rule="evenodd" fill="#563630" d="M21.569,18.594c-0.214-0.772-0.426-1.535-0.64-2.305
		c-1.879,0.99-3.758,1.98-5.637,2.967c-0.16,0.084-0.264,0.188-0.343,0.354c-0.914,1.932-1.831,3.866-2.747,5.799
		c0.667,0.186,1.328,0.369,1.997,0.556c0.203,0.729,0.404,1.452,0.606,2.18c1.959-1.031,3.918-2.063,5.877-3.094
		c0.13-0.07,0.214-0.158,0.277-0.289c0.883-1.867,1.767-3.734,2.651-5.601C22.93,18.972,22.251,18.783,21.569,18.594z"/>
	<g>
		<path fill="#E6EAD2" d="M17.912,20.43c-0.484,0-0.94,0.189-1.284,0.535c-0.338,0.342-0.524,0.796-0.522,1.277
			c0.003,0.482,0.192,0.938,0.536,1.275c0.341,0.338,0.791,0.525,1.271,0.525c0.485,0,0.94-0.189,1.283-0.535
			c0.34-0.342,0.524-0.797,0.522-1.279c0-0.48-0.19-0.935-0.534-1.277C18.844,20.615,18.392,20.43,17.912,20.43z"/>
	</g>
	<g>
		<path fill="#D4645C" d="M133.449,18.128h-3.875v-1.99h9.915v1.99h-3.875v10.229h-2.165V18.128z"/>
		<path fill="#D4645C" d="M140.971,15.72h2.27v2.007h-2.27V15.72z M141.059,19.141h2.112v9.217h-2.112V19.141z"/>
		<path fill="#D4645C" d="M145.425,19.141h2.112v1.396c0.594-0.82,1.396-1.588,2.811-1.588c1.327,0,2.252,0.646,2.741,1.624
			c0.75-0.978,1.728-1.624,3.124-1.624c2.008,0,3.229,1.274,3.229,3.526v5.883h-2.112v-5.237c0-1.466-0.681-2.251-1.867-2.251
			c-1.152,0-1.973,0.803-1.973,2.287v5.202h-2.112v-5.255c0-1.431-0.698-2.234-1.868-2.234c-1.169,0-1.973,0.873-1.973,2.304v5.185
			h-2.112V19.141z"/>
		<path fill="#D4645C" d="M161.109,23.785V23.75c0-2.636,1.868-4.8,4.504-4.8c2.933,0,4.416,2.304,4.416,4.958
			c0,0.192-0.018,0.384-0.034,0.593h-6.773c0.227,1.502,1.292,2.34,2.653,2.34c1.03,0,1.763-0.385,2.496-1.1l1.239,1.1
			c-0.873,1.047-2.077,1.729-3.771,1.729C163.169,28.568,161.109,26.63,161.109,23.785z M167.935,23.103
			c-0.14-1.361-0.942-2.426-2.339-2.426c-1.292,0-2.199,0.995-2.392,2.426H167.935z"/>
		<path fill="#D4645C" d="M171.757,21.969h5.167v2.077h-5.167V21.969z"/>
		<path fill="#D4645C" d="M179.405,16.139h4.556c3.841,0,6.494,2.636,6.494,6.075v0.035c0,3.438-2.653,6.109-6.494,6.109h-4.556
			V16.139z M183.961,26.403c2.566,0,4.242-1.728,4.242-4.12v-0.034c0-2.392-1.676-4.155-4.242-4.155h-2.409v8.309H183.961z"/>
		<path fill="#D4645C" d="M192.404,15.72h2.27v2.007h-2.27V15.72z M192.492,19.141h2.112v9.217h-2.112V19.141z"/>
		<path fill="#D4645C" d="M196.094,27.154l0.942-1.432c0.995,0.75,2.077,1.135,3.02,1.135c0.908,0,1.432-0.385,1.432-0.995v-0.035
			c0-0.716-0.978-0.96-2.06-1.292c-1.361-0.384-2.88-0.942-2.88-2.705v-0.035c0-1.746,1.448-2.811,3.281-2.811
			c1.152,0,2.409,0.401,3.387,1.047l-0.838,1.501c-0.891-0.541-1.833-0.873-2.602-0.873c-0.82,0-1.291,0.384-1.291,0.926v0.034
			c0,0.663,0.995,0.942,2.077,1.292c1.344,0.419,2.862,1.029,2.862,2.688v0.034c0,1.938-1.501,2.898-3.421,2.898
			C198.694,28.533,197.246,28.061,196.094,27.154z"/>
		<path fill="#D4645C" d="M205.541,25.809v-4.853h-1.169v-1.815h1.169V16.61h2.112v2.531h2.479v1.815h-2.479v4.521
			c0,0.82,0.419,1.152,1.135,1.152c0.472,0,0.891-0.105,1.31-0.314v1.728c-0.524,0.297-1.117,0.472-1.903,0.472
			C206.642,28.515,205.541,27.834,205.541,25.809z"/>
		<path fill="#D4645C" d="M217.464,28.358v-1.135c-0.628,0.751-1.588,1.327-2.984,1.327c-1.746,0-3.282-0.995-3.282-2.846v-0.035
			c0-2.042,1.589-3.02,3.735-3.02c1.117,0,1.833,0.157,2.549,0.384v-0.175c0-1.273-0.803-1.972-2.27-1.972
			c-1.029,0-1.798,0.227-2.636,0.576L212,19.77c1.013-0.454,2.008-0.768,3.509-0.768c2.724,0,4.05,1.432,4.05,3.893v5.464H217.464z
			 M217.517,24.5c-0.541-0.209-1.292-0.366-2.112-0.366c-1.327,0-2.112,0.542-2.112,1.432V25.6c0,0.872,0.785,1.361,1.78,1.361
			c1.396,0,2.444-0.786,2.444-1.938V24.5z"/>
		<path fill="#D4645C" d="M221.687,19.141h2.111v1.432c0.594-0.873,1.449-1.624,2.881-1.624c2.077,0,3.281,1.396,3.281,3.543v5.865
			h-2.112v-5.237c0-1.431-0.716-2.251-1.972-2.251c-1.223,0-2.078,0.855-2.078,2.287v5.202h-2.111V19.141z"/>
		<path fill="#D4645C" d="M231.557,23.802v-0.035c0-2.619,2.025-4.818,4.783-4.818c1.745,0,2.828,0.646,3.683,1.588l-1.309,1.414
			c-0.646-0.681-1.327-1.152-2.392-1.152c-1.536,0-2.653,1.327-2.653,2.933v0.035c0,1.641,1.135,2.967,2.758,2.967
			c0.995,0,1.729-0.471,2.392-1.151l1.274,1.257c-0.908,1.012-1.973,1.729-3.771,1.729C233.582,28.568,231.557,26.42,231.557,23.802
			z"/>
		<path fill="#D4645C" d="M240.803,23.785V23.75c0-2.636,1.868-4.8,4.504-4.8c2.933,0,4.416,2.304,4.416,4.958
			c0,0.192-0.018,0.384-0.034,0.593h-6.773c0.227,1.502,1.292,2.34,2.653,2.34c1.03,0,1.763-0.385,2.496-1.1l1.239,1.1
			c-0.873,1.047-2.077,1.729-3.771,1.729C242.862,28.568,240.803,26.63,240.803,23.785z M247.628,23.103
			c-0.14-1.361-0.942-2.426-2.339-2.426c-1.292,0-2.199,0.995-2.392,2.426H247.628z"/>
		<path fill="#D4645C" d="M256.462,16.139h2.286l3.719,5.778l3.718-5.778h2.287v12.219h-2.147v-8.763l-3.857,5.76h-0.07
			l-3.822-5.725v8.728h-2.112V16.139z"/>
		<path fill="#D4645C" d="M276.693,28.358v-1.135c-0.628,0.751-1.589,1.327-2.985,1.327c-1.745,0-3.281-0.995-3.281-2.846v-0.035
			c0-2.042,1.589-3.02,3.735-3.02c1.117,0,1.833,0.157,2.549,0.384v-0.175c0-1.273-0.803-1.972-2.27-1.972
			c-1.029,0-1.798,0.227-2.636,0.576l-0.576-1.693c1.013-0.454,2.008-0.768,3.509-0.768c2.724,0,4.05,1.432,4.05,3.893v5.464
			H276.693z M276.746,24.5c-0.541-0.209-1.292-0.366-2.112-0.366c-1.327,0-2.112,0.542-2.112,1.432V25.6
			c0,0.872,0.785,1.361,1.78,1.361c1.396,0,2.444-0.786,2.444-1.938V24.5z"/>
		<path fill="#D4645C" d="M281.146,25.809v-4.853h-1.169v-1.815h1.169V16.61h2.112v2.531h2.479v1.815h-2.479v4.521
			c0,0.82,0.419,1.152,1.135,1.152c0.472,0,0.891-0.105,1.31-0.314v1.728c-0.524,0.297-1.117,0.472-1.903,0.472
			C282.247,28.515,281.146,27.834,281.146,25.809z"/>
		<path fill="#D4645C" d="M287.401,19.141h2.112v2.077c0.576-1.379,1.642-2.321,3.265-2.252v2.234h-0.122
			c-1.851,0-3.143,1.205-3.143,3.648v3.509h-2.112V19.141z"/>
		<path fill="#D4645C" d="M294.004,15.72h2.27v2.007h-2.27V15.72z M294.092,19.141h2.112v9.217h-2.112V19.141z"/>
		<path fill="#D4645C" d="M300.895,23.679l-3.265-4.538h2.305l2.13,3.037l2.129-3.037h2.252l-3.264,4.486l3.403,4.73h-2.304
			l-2.27-3.229l-2.252,3.229h-2.252L300.895,23.679z"/>
	</g>
	<g>
		<path fill-rule="evenodd" clip-rule="evenodd" fill="#678985" d="M21.569,18.594c0.682,0.189,1.361,0.378,2.042,0.567
			c0.856-1.809,1.714-3.617,2.568-5.426c0.034-0.066,0.085-0.129,0.078-0.225c-0.108,0.01-0.189,0.076-0.273,0.119
			c-1.685,0.886-3.37,1.773-5.055,2.66C21.143,17.059,21.355,17.822,21.569,18.594z"/>
		<path fill-rule="evenodd" clip-rule="evenodd" fill="#678985" d="M14.199,25.964c-0.669-0.187-1.33-0.37-1.997-0.556
			c-0.71,1.497-1.418,2.994-2.128,4.491c-0.141,0.301-0.28,0.598-0.424,0.898c0.013,0.01,0.021,0.021,0.033,0.035
			c0.068-0.035,0.138-0.064,0.202-0.1c1.64-0.863,3.28-1.727,4.92-2.59C14.603,27.417,14.402,26.694,14.199,25.964z"/>
	</g>
</g>
</svg>
